<?xml version="1.0" encoding="UTF-8" standalone="no"?>
<!-- Created with Inkscape (http://www.inkscape.org/) -->

<svg
   width="118.50252mm"
   height="121.841mm"
   viewBox="0 0 118.50252 121.841"
   version="1.1"
   id="svg913"
   inkscape:version="1.1.1 (3bf5ae0d25, 2021-09-20, custom)"
   sodipodi:docname="foopss-logo.svg"
   xmlns:inkscape="http://www.inkscape.org/namespaces/inkscape"
   xmlns:sodipodi="http://sodipodi.sourceforge.net/DTD/sodipodi-0.dtd"
   xmlns="http://www.w3.org/2000/svg"
   xmlns:svg="http://www.w3.org/2000/svg">
  <sodipodi:namedview
     id="namedview915"
     pagecolor="#ffffff"
     bordercolor="#666666"
     borderopacity="1.0"
     inkscape:pageshadow="2"
     inkscape:pageopacity="0.0"
     inkscape:pagecheckerboard="0"
     inkscape:document-units="mm"
     showgrid="false"
     inkscape:snap-bbox="true"
     inkscape:snap-bbox-midpoints="true"
     inkscape:zoom="1.3671462"
     inkscape:cx="274.65972"
     inkscape:cy="211.02351"
     inkscape:window-width="1920"
     inkscape:window-height="1020"
     inkscape:window-x="0"
     inkscape:window-y="32"
     inkscape:window-maximized="1"
     inkscape:current-layer="g46849" />
  <defs
     id="defs910" />
  <g
     inkscape:label="Layer 1"
     inkscape:groupmode="layer"
     id="layer1"
     transform="translate(-25.775375,-64.50042)">
    <g
       id="g46849">
      <path
         id="path11797"
         style="fill:#07529a;fill-opacity:1;stroke:none;stroke-width:1.09984;stroke-linejoin:round;stroke-miterlimit:4;stroke-dasharray:none"
         d="M 223.94141 0 A 223.94177 230.25072 0 0 0 0 230.25 A 223.94177 230.25072 0 0 0 13.158203 307.54688 L 434.72461 307.54688 A 223.94177 230.25072 0 0 0 447.88281 230.25 A 223.94177 230.25072 0 0 0 223.94141 0 z M 13.158203 307.54688 A 223.94177 230.25072 0 0 0 79.671875 406.1582 A 223.94177 230.25072 0 0 1 13.158203 307.54688 z M 434.7168 307.57227 A 223.94177 230.25072 0 0 1 368.22656 406.14648 A 223.94177 230.25072 0 0 0 434.7168 307.57227 z M 79.673828 406.16016 A 223.94177 230.25072 0 0 0 223.94141 460.50195 A 223.94177 230.25072 0 0 0 368.20898 406.16016 L 79.673828 406.16016 z "
         transform="matrix(0.26458333,0,0,0.26458333,25.775375,64.50042)" />
      <path
         id="ellipse12185"
         style="fill:#ffffff;stroke-width:1.09803;stroke-linejoin:round"
         d="m 110.57617,551.32812 a 223.94177,230.25072 0 0 0 66.51563,98.61329 h 288.53711 a 223.94177,230.25072 0 0 0 66.51562,-98.61329 z"
         transform="scale(0.26458333)" />
      <path
         id="path1214"
         style="display:inline;fill:#ffffff;stroke-width:3.46596;stroke-linecap:round;stroke-linejoin:round"
         d="m 57.558527,80.014428 v 6.663321 h 3.439193 c 1.303928,0 2.360633,0.0786 3.170211,0.23627 0.80958,0.15759 1.37213,0.39436 1.687183,0.7094 0.315233,0.30091 0.551707,0.82709 0.709408,1.57936 0.157704,0.752247 0.236266,1.730337 0.236266,2.933937 v 34.775394 c 0,1.20358 -0.07857,2.18542 -0.236266,2.94484 -0.157633,0.75942 -0.39435,1.29702 -0.709408,1.61206 -0.315227,0.30092 -0.877603,0.52626 -1.687183,0.67668 -0.809578,0.15037 -1.866283,0.22598 -3.170211,0.22598 h -3.439193 v 6.70573 h 31.68092 v -6.70573 h -4.126791 c -1.318242,0 -2.389294,-0.0785 -3.213221,-0.23626 -0.823895,-0.15762 -1.400587,-0.39401 -1.730201,-0.70941 -0.315228,-0.31522 -0.551704,-0.8489 -0.709405,-1.60116 -0.157703,-0.75225 -0.236267,-1.72347 -0.236267,-2.91273 V 111.6093 h 1.590862 c 1.819732,0 3.327753,0.18664 4.524201,0.55915 0.598225,0.18628 1.11757,0.41916 1.559967,0.6985 0.442395,0.2794 0.80746,0.60523 1.094095,0.97779 0.587482,0.73075 1.060605,1.91295 1.418812,3.54643 0.358239,1.63347 0.601674,3.71823 0.730608,6.25439 l 6.70573,0.043 V 94.071066 l -6.70573,0.043 c -0.143285,2.292567 -0.394179,4.173247 -0.752421,5.641927 -0.358206,1.468677 -0.823868,2.525397 -1.396999,3.170197 -0.573166,0.63046 -1.465107,1.10341 -2.675868,1.4188 -1.210765,0.31517 -2.740023,0.47254 -4.588419,0.47254 H 79.223562 V 86.677739 h 11.00457 c 1.963014,0 3.67888,0.0855 5.147581,0.25747 1.468699,0.17194 2.690206,0.4304 3.664557,0.77423 0.97434,0.34389 1.81259,0.79833 2.51472,1.36429 0.7021,0.565997 1.26825,1.243227 1.69809,2.031277 0.41555,0.75943 0.77688,1.60141 1.08501,2.52563 0.30806,0.92421 0.56264,1.930397 0.76332,3.019357 0.40112,2.14932 0.60157,4.757717 0.60157,7.824037 h 6.79176 V 80.014428 Z" />
      <g
         aria-label="Object-Oriented
Programming"
         id="text5651"
         style="font-weight:600;font-size:9.87778px;line-height:0.85;font-family:'Source Sans Pro';-inkscape-font-specification:'Source Sans Pro Semi-Bold';text-align:center;text-anchor:middle;fill:#a34e9c;stroke:none;stroke-width:0.5">
        <path
           d="m 44.849879,150.00817 q -0.848872,0 -1.316716,0.62701 -0.467844,0.62701 -0.467844,1.76527 0,1.13343 0.467844,1.76044 0.467844,0.62701 1.316716,0.62701 0.853694,0 1.321538,-0.62701 0.467844,-0.62701 0.467844,-1.76044 0,-1.13826 -0.467844,-1.76527 -0.467844,-0.62701 -1.321538,-0.62701 z m 0,-1.34565 q 1.736328,0 2.720248,0.99356 0.983919,0.99357 0.983919,2.74437 0,1.74597 -0.983919,2.73954 -0.98392,0.99356 -2.720248,0.99356 -1.731506,0 -2.720248,-0.99356 -0.98392,-0.99357 -0.98392,-2.73954 0,-1.7508 0.98392,-2.74437 0.988742,-0.99356 2.720248,-0.99356 z"
           style="fill:#cc0e22;stroke:none"
           id="path66327" />
        <path
           d="m 52.754996,154.87954 q 0.554661,0 0.844049,-0.40514 0.294211,-0.40515 0.294211,-1.17685 0,-0.7717 -0.294211,-1.17684 -0.289388,-0.40515 -0.844049,-0.40515 -0.55466,0 -0.853695,0.40997 -0.294211,0.40514 -0.294211,1.17202 0,0.76688 0.294211,1.17685 0.299035,0.40514 0.853695,0.40514 z m -1.147906,-3.49677 q 0.356912,-0.47267 0.790994,-0.69454 0.434082,-0.22668 0.998389,-0.22668 0.998389,0 1.639866,0.79581 0.641477,0.791 0.641477,2.04019 0,1.24919 -0.641477,2.04501 -0.641477,0.79099 -1.639866,0.79099 -0.564307,0 -0.998389,-0.22186 -0.434082,-0.22669 -0.790994,-0.69935 v 0.78134 h -1.726682 v -7.50479 h 1.726682 z"
           style="font-weight:bold;font-family:cl;-inkscape-font-specification:'cl Bold';fill:#000000;stroke:none"
           id="path66329" />
        <path
           d="m 56.951123,150.59177 h 1.726682 v 5.30545 q 0,1.08521 -0.520898,1.65434 -0.520899,0.57395 -1.509642,0.57395 h -0.853694 v -1.13344 h 0.299034 q 0.49196,0 0.675239,-0.22186 0.183279,-0.22187 0.183279,-0.87299 z m 0,-2.10288 h 1.726682 v 1.40835 h -1.726682 z"
           style="font-weight:bold;font-family:cl;-inkscape-font-specification:'cl Bold';fill:#000000;stroke:none"
           id="path66331" />
        <path
           d="m 65.729229,153.27826 v 0.49196 h -4.036964 q 0.0627,0.60771 0.438905,0.91157 0.376205,0.30386 1.051444,0.30386 0.545014,0 1.114144,-0.15917 0.573953,-0.16398 1.176845,-0.49196 v 1.33119 q -0.612538,0.23151 -1.225076,0.34727 -0.612539,0.12057 -1.225077,0.12057 -1.466233,0 -2.281342,-0.74276 -0.810287,-0.74758 -0.810287,-2.09324 0,-1.32154 0.795817,-2.07877 0.800641,-0.75723 2.19935,-0.75723 1.273307,0 2.035363,0.76688 0.766878,0.76687 0.766878,2.04983 z m -1.774914,-0.57396 q 0,-0.49195 -0.289388,-0.79099 -0.284565,-0.30386 -0.747586,-0.30386 -0.501606,0 -0.815109,0.28457 -0.313504,0.27974 -0.390674,0.81028 z"
           style="font-weight:bold;font-family:cl;-inkscape-font-specification:'cl Bold';fill:#000000;stroke:none"
           id="path66333" />
        <path
           d="m 71.401234,150.76058 v 1.40836 q -0.352088,-0.24116 -0.709,-0.35691 -0.352089,-0.11576 -0.733117,-0.11576 -0.72347,0 -1.128613,0.42444 -0.400321,0.41961 -0.400321,1.17684 0,0.75723 0.400321,1.18167 0.405143,0.41961 1.128613,0.41961 0.405143,0 0.766879,-0.12058 0.366558,-0.12058 0.675238,-0.35691 v 1.41318 q -0.405143,0.14952 -0.824756,0.22186 -0.414789,0.0772 -0.834402,0.0772 -1.46141,0 -2.286166,-0.74758 -0.824756,-0.75241 -0.824756,-2.08842 0,-1.33601 0.824756,-2.08359 0.824756,-0.75241 2.286166,-0.75241 0.424436,0 0.834402,0.0772 0.41479,0.0723 0.824756,0.22186 z"
           style="font-weight:bold;font-family:cl;-inkscape-font-specification:'cl Bold';fill:#000000;stroke:none"
           id="path66335" />
        <path
           d="m 74.777429,149.05802 v 1.53375 h 1.779737 v 1.23472 h -1.779737 v 2.29099 q 0,0.37621 0.149517,0.51126 0.149517,0.13022 0.593246,0.13022 h 0.887456 v 1.23472 h -1.480702 q -1.022505,0 -1.451764,-0.42443 -0.424435,-0.42926 -0.424435,-1.45177 v -2.29099 h -0.858518 v -1.23472 h 0.858518 v -1.53375 z"
           style="font-weight:bold;font-family:cl;-inkscape-font-specification:'cl Bold';fill:#000000;stroke:none"
           id="path66337" />
        <path
           d="m 77.319223,152.44868 h 3.028929 v 1.40353 h -3.028929 z"
           style="font-weight:bold;font-family:cl;-inkscape-font-specification:'cl Bold';fill:#000000;stroke:none"
           id="path66339" />
        <path
           d="m 85.079645,150.00817 q -0.848871,0 -1.316715,0.62701 -0.467845,0.62701 -0.467845,1.76527 0,1.13343 0.467845,1.76044 0.467844,0.62701 1.316715,0.62701 0.853695,0 1.321539,-0.62701 0.467844,-0.62701 0.467844,-1.76044 0,-1.13826 -0.467844,-1.76527 -0.467844,-0.62701 -1.321539,-0.62701 z m 0,-1.34565 q 1.736329,0 2.720248,0.99356 0.98392,0.99357 0.98392,2.74437 0,1.74597 -0.98392,2.73954 -0.983919,0.99356 -2.720248,0.99356 -1.731505,0 -2.720248,-0.99356 -0.983919,-0.99357 -0.983919,-2.73954 0,-1.7508 0.983919,-2.74437 0.988743,-0.99356 2.720248,-0.99356 z"
           style="fill:#4499da;stroke:none"
           id="path66341" />
        <path
           d="m 94.123025,152.06283 q -0.226687,-0.10611 -0.453375,-0.15434 -0.221864,-0.0531 -0.448551,-0.0531 -0.665593,0 -1.027328,0.42926 -0.356912,0.42444 -0.356912,1.22026 v 2.48873 h -1.726682 v -5.40191 h 1.726682 v 0.88746 q 0.332796,-0.53055 0.762055,-0.7717 0.434082,-0.24598 1.036974,-0.24598 0.08682,0 0.188103,0.01 0.101285,0.005 0.294211,0.0289 z"
           style="font-weight:bold;font-family:cl;-inkscape-font-specification:'cl Bold';fill:#000000;stroke:none"
           id="path66343" />
        <path
           d="m 94.981541,150.59177 h 1.726683 v 5.40191 h -1.726683 z m 0,-2.10288 h 1.726683 v 1.40835 h -1.726683 z"
           style="font-weight:bold;font-family:cl;-inkscape-font-specification:'cl Bold';fill:#000000;stroke:none"
           id="path66345" />
        <path
           d="m 103.75965,153.27826 v 0.49196 h -4.036966 q 0.0627,0.60771 0.438906,0.91157 0.3762,0.30386 1.05144,0.30386 0.54502,0 1.11415,-0.15917 0.57395,-0.16398 1.17684,-0.49196 v 1.33119 q -0.61254,0.23151 -1.22507,0.34727 -0.61254,0.12057 -1.22508,0.12057 -1.466234,0 -2.281344,-0.74276 -0.810287,-0.74758 -0.810287,-2.09324 0,-1.32154 0.795818,-2.07877 0.80064,-0.75723 2.199353,-0.75723 1.2733,0 2.03536,0.76688 0.76688,0.76687 0.76688,2.04983 z m -1.77492,-0.57396 q 0,-0.49195 -0.28938,-0.79099 -0.28457,-0.30386 -0.74759,-0.30386 -0.50161,0 -0.81511,0.28457 -0.313504,0.27974 -0.390674,0.81028 z"
           style="font-weight:bold;font-family:cl;-inkscape-font-specification:'cl Bold';fill:#000000;stroke:none"
           id="path66347" />
        <path
           d="m 110.49757,152.7043 v 3.28938 h -1.73633 v -0.53537 -1.9823 q 0,-0.69936 -0.0338,-0.96463 -0.0289,-0.26527 -0.10611,-0.39067 -0.10129,-0.16881 -0.27492,-0.26045 -0.17364,-0.0965 -0.3955,-0.0965 -0.54019,0 -0.84887,0.41962 -0.30868,0.41479 -0.30868,1.15273 v 2.65754 h -1.72668 v -5.40191 h 1.72668 v 0.791 q 0.39067,-0.47267 0.82958,-0.69454 0.4389,-0.22668 0.96945,-0.22668 0.93569,0 1.418,0.57395 0.48714,0.57395 0.48714,1.6688 z"
           style="font-weight:bold;font-family:cl;-inkscape-font-specification:'cl Bold';fill:#000000;stroke:none"
           id="path66349" />
        <path
           d="m 113.98469,149.05802 v 1.53375 h 1.77974 v 1.23472 h -1.77974 v 2.29099 q 0,0.37621 0.14952,0.51126 0.14952,0.13022 0.59325,0.13022 h 0.88745 v 1.23472 h -1.4807 q -1.0225,0 -1.45176,-0.42443 -0.42444,-0.42926 -0.42444,-1.45177 v -2.29099 h -0.85852 v -1.23472 h 0.85852 v -1.53375 z"
           style="font-weight:bold;font-family:cl;-inkscape-font-specification:'cl Bold';fill:#000000;stroke:none"
           id="path66351" />
        <path
           d="m 122.21296,153.27826 v 0.49196 H 118.176 q 0.0627,0.60771 0.4389,0.91157 0.37621,0.30386 1.05144,0.30386 0.54502,0 1.11415,-0.15917 0.57395,-0.16398 1.17684,-0.49196 v 1.33119 q -0.61253,0.23151 -1.22507,0.34727 -0.61254,0.12057 -1.22508,0.12057 -1.46623,0 -2.28134,-0.74276 -0.81029,-0.74758 -0.81029,-2.09324 0,-1.32154 0.79582,-2.07877 0.80064,-0.75723 2.19935,-0.75723 1.27331,0 2.03536,0.76688 0.76688,0.76687 0.76688,2.04983 z m -1.77491,-0.57396 q 0,-0.49195 -0.28939,-0.79099 -0.28457,-0.30386 -0.74759,-0.30386 -0.5016,0 -0.81511,0.28457 -0.3135,0.27974 -0.39067,0.81028 z"
           style="font-weight:bold;font-family:cl;-inkscape-font-specification:'cl Bold';fill:#000000;stroke:none"
           id="path66353" />
        <path
           d="m 127.19526,151.38277 v -2.89388 h 1.73633 v 7.50479 h -1.73633 v -0.78134 q -0.35692,0.47749 -0.78617,0.69935 -0.42926,0.22186 -0.99357,0.22186 -0.99839,0 -1.63987,-0.79099 -0.64147,-0.79582 -0.64147,-2.04501 0,-1.24919 0.64147,-2.04019 0.64148,-0.79581 1.63987,-0.79581 0.55948,0 0.98874,0.22668 0.43408,0.22187 0.791,0.69454 z m -1.13826,3.49677 q 0.55466,0 0.84405,-0.40514 0.29421,-0.40515 0.29421,-1.17685 0,-0.7717 -0.29421,-1.17684 -0.28939,-0.40515 -0.84405,-0.40515 -0.54984,0 -0.84405,0.40515 -0.28939,0.40514 -0.28939,1.17684 0,0.7717 0.28939,1.17685 0.29421,0.40514 0.84405,0.40514 z"
           style="font-weight:bold;font-family:cl;-inkscape-font-specification:'cl Bold';fill:#000000;stroke:none"
           id="path66355" />
        <path
           d="m 48.324947,159.62435 h 3.081983 q 1.374594,0 2.10771,0.61254 0.73794,0.60772 0.73794,1.73633 0,1.13344 -0.73794,1.74598 -0.733116,0.60771 -2.10771,0.60771 h -1.225076 v 2.49838 h -1.856907 z m 1.856907,1.34566 v 2.01125 h 1.027328 q 0.540191,0 0.834402,-0.26045 0.294211,-0.26528 0.294211,-0.74759 0,-0.48231 -0.294211,-0.74276 -0.294211,-0.26045 -0.834402,-0.26045 z"
           style="fill:#000099;stroke:none"
           id="path66357" />
        <path
           d="m 59.50015,162.89444 q -0.226687,-0.10611 -0.453374,-0.15434 -0.221865,-0.0531 -0.448552,-0.0531 -0.665592,0 -1.027328,0.42925 -0.356912,0.42444 -0.356912,1.22026 v 2.48873 h -1.726682 v -5.40191 h 1.726682 v 0.88746 q 0.332797,-0.53054 0.762056,-0.7717 0.434082,-0.24598 1.036974,-0.24598 0.08682,0 0.188102,0.01 0.101286,0.005 0.294211,0.0289 z"
           style="font-weight:bold;font-family:cl;-inkscape-font-specification:'cl Bold';fill:#000000;stroke:none"
           id="path66359" />
        <path
           d="m 62.929399,162.52788 q -0.573953,0 -0.87781,0.41479 -0.299035,0.40997 -0.299035,1.18649 0,0.77653 0.299035,1.19132 0.303857,0.40996 0.87781,0.40996 0.564307,0 0.863341,-0.40996 0.299035,-0.41479 0.299035,-1.19132 0,-0.77652 -0.299035,-1.18649 -0.299034,-0.41479 -0.863341,-0.41479 z m 0,-1.23472 q 1.393886,0 2.175234,0.75241 0.786171,0.75241 0.786171,2.08359 0,1.33119 -0.786171,2.0836 -0.781348,0.75241 -2.175234,0.75241 -1.398709,0 -2.189703,-0.75241 -0.786171,-0.75241 -0.786171,-2.0836 0,-1.33118 0.786171,-2.08359 0.790994,-0.75241 2.189703,-0.75241 z"
           style="font-weight:bold;font-family:cl;-inkscape-font-specification:'cl Bold';fill:#000000;stroke:none"
           id="path66361" />
        <path
           d="m 70.820047,165.9089 q -0.356912,0.47267 -0.786171,0.69453 -0.429259,0.22186 -0.993566,0.22186 -0.988742,0 -1.635042,-0.77652 -0.646301,-0.78135 -0.646301,-1.98713 0,-1.21061 0.646301,-1.98231 0.6463,-0.77652 1.635042,-0.77652 0.564307,0 0.993566,0.22186 0.429259,0.22186 0.786171,0.69935 v -0.80064 h 1.736328 v 4.8569 q 0,1.30225 -0.824756,1.98713 -0.819933,0.68971 -2.382628,0.68971 -0.506429,0 -0.979097,-0.0772 -0.472667,-0.0772 -0.950157,-0.23633 v -1.34566 q 0.453375,0.26045 0.887457,0.38585 0.434082,0.13023 0.872987,0.13023 0.848872,0 1.244369,-0.37138 0.395497,-0.37139 0.395497,-1.16238 z m -1.13826,-3.36173 q -0.535368,0 -0.834402,0.3955 -0.299035,0.3955 -0.299035,1.11897 0,0.74276 0.289389,1.12861 0.289388,0.38103 0.844048,0.38103 0.540191,0 0.839226,-0.3955 0.299034,-0.39549 0.299034,-1.11414 0,-0.72347 -0.299034,-1.11897 -0.299035,-0.3955 -0.839226,-0.3955 z"
           style="font-weight:bold;font-family:cl;-inkscape-font-specification:'cl Bold';fill:#000000;stroke:none"
           id="path66363" />
        <path
           d="m 78.228383,162.89444 q -0.226687,-0.10611 -0.453374,-0.15434 -0.221865,-0.0531 -0.448552,-0.0531 -0.665593,0 -1.027328,0.42925 -0.356912,0.42444 -0.356912,1.22026 v 2.48873 h -1.726682 v -5.40191 h 1.726682 v 0.88746 q 0.332797,-0.53054 0.762056,-0.7717 0.434082,-0.24598 1.036974,-0.24598 0.08682,0 0.188102,0.01 0.101286,0.005 0.294211,0.0289 z"
           style="font-weight:bold;font-family:cl;-inkscape-font-specification:'cl Bold';fill:#000000;stroke:none"
           id="path66365" />
        <path
           d="m 81.508113,164.39444 q -0.540191,0 -0.815109,0.18327 -0.270096,0.18328 -0.270096,0.5402 0,0.32797 0.217041,0.51607 0.221864,0.18328 0.612538,0.18328 0.487137,0 0.819933,-0.34727 0.332796,-0.35208 0.332796,-0.87781 v -0.19774 z m 2.638255,-0.65113 v 3.08198 h -1.741152 v -0.80064 q -0.347265,0.49196 -0.781347,0.71865 -0.434083,0.22187 -1.056267,0.22187 -0.839225,0 -1.364947,-0.48714 -0.520899,-0.49196 -0.520899,-1.27331 0,-0.95016 0.651124,-1.39388 0.655946,-0.44373 2.054655,-0.44373 h 1.017681 v -0.13505 q 0,-0.40997 -0.32315,-0.59807 -0.32315,-0.19292 -1.008035,-0.19292 -0.55466,0 -1.032151,0.11093 -0.47749,0.11093 -0.887456,0.33279 v -1.31671 q 0.55466,-0.13505 1.114144,-0.20257 0.559483,-0.0724 1.118967,-0.0724 1.46141,0 2.10771,0.57878 0.651123,0.57395 0.651123,1.87137 z"
           style="font-weight:bold;font-family:cl;-inkscape-font-specification:'cl Bold';fill:#000000;stroke:none"
           id="path66367" />
        <path
           d="m 90.758887,162.32049 q 0.327973,-0.50161 0.776524,-0.76206 0.453375,-0.26527 0.993566,-0.26527 0.930865,0 1.418002,0.57395 0.487136,0.57396 0.487136,1.66881 v 3.28937 h -1.736328 v -2.81671 q 0.0048,-0.0627 0.0048,-0.13022 0.0048,-0.0675 0.0048,-0.19293 0,-0.57395 -0.16881,-0.82957 -0.168809,-0.26045 -0.545014,-0.26045 -0.49196,0 -0.762055,0.40514 -0.265273,0.40514 -0.274919,1.17202 v 2.65272 h -1.736328 v -2.81671 q 0,-0.8971 -0.154341,-1.15272 -0.15434,-0.26045 -0.549837,-0.26045 -0.496783,0 -0.766878,0.40996 -0.270096,0.40515 -0.270096,1.16238 v 2.65754 h -1.736328 v -5.40191 h 1.736328 v 0.791 q 0.318327,-0.4582 0.728293,-0.68971 0.41479,-0.23151 0.911573,-0.23151 0.559484,0 0.988743,0.27009 0.429258,0.2701 0.651123,0.75724 z"
           style="font-weight:bold;font-family:cl;-inkscape-font-specification:'cl Bold';fill:#000000;stroke:none"
           id="path66369" />
        <path
           d="m 101.05145,162.32049 q 0.32798,-0.50161 0.77653,-0.76206 0.45337,-0.26527 0.99357,-0.26527 0.93086,0 1.418,0.57395 0.48713,0.57396 0.48713,1.66881 v 3.28937 h -1.73632 v -2.81671 q 0.005,-0.0627 0.005,-0.13022 0.005,-0.0675 0.005,-0.19293 0,-0.57395 -0.16881,-0.82957 -0.16881,-0.26045 -0.54501,-0.26045 -0.49196,0 -0.76206,0.40514 -0.26527,0.40514 -0.27492,1.17202 v 2.65272 h -1.736325 v -2.81671 q 0,-0.8971 -0.15434,-1.15272 -0.154341,-0.26045 -0.549838,-0.26045 -0.496783,0 -0.766878,0.40996 -0.270096,0.40515 -0.270096,1.16238 v 2.65754 h -1.736328 v -5.40191 h 1.736328 v 0.791 q 0.318327,-0.4582 0.728294,-0.68971 0.414789,-0.23151 0.911572,-0.23151 0.559484,0 0.988741,0.27009 0.42926,0.2701 0.65112,0.75724 z"
           style="font-weight:bold;font-family:cl;-inkscape-font-specification:'cl Bold';fill:#000000;stroke:none"
           id="path66371" />
        <path
           d="m 106.33761,161.42338 h 1.72668 v 5.40191 h -1.72668 z m 0,-2.10288 h 1.72668 v 1.40835 h -1.72668 z"
           style="font-weight:bold;font-family:cl;-inkscape-font-specification:'cl Bold';fill:#000000;stroke:none"
           id="path66373" />
        <path
           d="m 115.1543,163.53592 v 3.28937 h -1.73633 v -0.53536 -1.98231 q 0,-0.69936 -0.0338,-0.96463 -0.0289,-0.26527 -0.10611,-0.39067 -0.10128,-0.16881 -0.27492,-0.26045 -0.17363,-0.0965 -0.39549,-0.0965 -0.5402,0 -0.84888,0.41961 -0.30868,0.41479 -0.30868,1.15273 v 2.65754 h -1.72668 v -5.40191 h 1.72668 v 0.791 q 0.39068,-0.47267 0.82958,-0.69453 0.43891,-0.22669 0.96945,-0.22669 0.93569,0 1.418,0.57395 0.48714,0.57396 0.48714,1.66881 z"
           style="font-weight:bold;font-family:cl;-inkscape-font-specification:'cl Bold';fill:#000000;stroke:none"
           id="path66375" />
        <path
           d="m 120.43081,165.9089 q -0.35691,0.47267 -0.78617,0.69453 -0.42926,0.22186 -0.99357,0.22186 -0.98874,0 -1.63504,-0.77652 -0.6463,-0.78135 -0.6463,-1.98713 0,-1.21061 0.6463,-1.98231 0.6463,-0.77652 1.63504,-0.77652 0.56431,0 0.99357,0.22186 0.42926,0.22186 0.78617,0.69935 v -0.80064 h 1.73633 v 4.8569 q 0,1.30225 -0.82476,1.98713 -0.81993,0.68971 -2.38263,0.68971 -0.50642,0 -0.97909,-0.0772 -0.47267,-0.0772 -0.95016,-0.23633 v -1.34566 q 0.45338,0.26045 0.88746,0.38585 0.43408,0.13023 0.87298,0.13023 0.84888,0 1.24437,-0.37138 0.3955,-0.37139 0.3955,-1.16238 z m -1.13826,-3.36173 q -0.53537,0 -0.8344,0.3955 -0.29904,0.3955 -0.29904,1.11897 0,0.74276 0.28939,1.12861 0.28939,0.38103 0.84405,0.38103 0.54019,0 0.83923,-0.3955 0.29903,-0.39549 0.29903,-1.11414 0,-0.72347 -0.29903,-1.11897 -0.29904,-0.3955 -0.83923,-0.3955 z"
           style="font-weight:bold;font-family:cl;-inkscape-font-specification:'cl Bold';fill:#000000;stroke:none"
           id="path66377" />
      </g>
    </g>
  </g>
</svg>
